<svg width="28" height="30" viewBox="0 0 28 30" fill="none" xmlns="http://www.w3.org/2000/svg">
<path d="M20.3287 15.7111C20.3186 13.6627 21.159 12.1167 22.8602 10.9781C21.9084 9.47672 20.4705 8.65067 18.5718 8.48881C16.7744 8.33253 14.8099 9.64416 14.0909 9.64416C13.3314 9.64416 11.5897 8.54463 10.2227 8.54463C7.39745 8.59486 4.39502 11.0283 4.39502 15.979C4.39502 17.4413 4.63805 18.952 5.12411 20.5111C5.77219 22.5595 8.11136 27.5827 10.5518 27.499C11.8277 27.4655 12.7289 26.4999 14.3896 26.4999C15.9997 26.4999 16.8351 27.499 18.2579 27.499C20.7185 27.4599 22.8349 22.8943 23.4526 20.8404C20.1515 19.1269 20.3287 15.8172 20.3287 15.7111ZM17.463 6.54649C18.8452 4.73813 18.7186 3.09163 18.6781 2.5C17.4579 2.57814 16.0453 3.41535 15.2402 4.4479C14.3542 5.55301 13.8327 6.92045 13.9441 8.46091C15.2656 8.57253 16.4706 7.82463 17.463 6.54649Z" fill="#E8D3A2"/>
</svg>
